<?xml version="1.0" standalone="no"?>
<!DOCTYPE svg PUBLIC "-//W3C//DTD SVG 20010904//EN"
 "http://www.w3.org/TR/2001/REC-SVG-20010904/DTD/svg10.dtd">
<svg version="1.0" xmlns="http://www.w3.org/2000/svg"
 width="700.000000pt" height="700.000000pt" viewBox="0 0 700.000000 700.000000"
 preserveAspectRatio="xMidYMid meet">
<metadata>
Created by potrace 1.11, written by Peter Selinger 2001-2013
</metadata>
<g transform="translate(0.000000,700.000000) scale(0.100000,-0.100000)"
fill="#000000" stroke="none">
<path d="M4699 6502 c-30 -15 -77 -49 -105 -77 -68 -68 -71 -80 -90 -405 -4
-62 -14 -1362 -14 -1754 l0 -28 -87 4 c-106 5 -133 18 -214 100 -205 209 -369
527 -453 879 -29 121 -44 196 -51 259 -3 25 -7 56 -10 70 -5 28 -13 116 -20
235 -15 226 -42 341 -94 398 -33 36 -62 51 -129 67 -209 49 -293 -41 -329
-350 -14 -118 -6 -460 11 -489 2 -3 7 -27 10 -52 3 -25 15 -81 27 -125 71
-279 203 -541 404 -809 34 -44 75 -101 93 -127 l33 -48 -33 -1 c-18 -1 -51 -2
-73 -4 -22 -1 -112 -6 -200 -9 -88 -4 -187 -9 -220 -11 -33 -2 -98 -7 -145
-10 -47 -4 -96 -8 -110 -10 -14 -2 -49 -7 -79 -10 -68 -9 -91 -31 -91 -88 0
-116 62 -214 141 -226 50 -8 317 -6 519 3 74 3 194 8 265 11 72 3 177 8 235
10 58 3 188 7 290 10 102 3 237 8 300 10 200 7 669 15 1180 21 272 2 520 6
550 9 236 18 288 32 313 83 41 79 -31 148 -175 167 -24 4 -59 8 -78 11 -86 12
-189 15 -720 19 -311 3 -570 7 -577 9 -8 3 -11 68 -11 229 l0 225 36 -4 c94
-8 206 -21 313 -35 42 -5 96 -11 120 -13 24 -3 66 -7 92 -11 197 -28 328 -1
423 87 107 99 221 286 297 488 66 176 164 455 182 515 22 78 23 82 36 205 15
137 6 170 -63 239 -82 81 -150 88 -263 27 -105 -56 -134 -121 -225 -496 -47
-198 -90 -331 -155 -487 -105 -249 -149 -271 -380 -187 -55 20 -152 54 -215
76 -129 45 -145 56 -154 101 -3 18 -8 43 -11 57 -3 14 -7 144 -10 290 -7 386
-14 550 -30 660 -4 25 -9 58 -11 74 -5 40 -33 136 -49 166 -43 82 -102 98
-196 52z"/>
<path d="M1245 5775 c-145 -20 -165 -24 -260 -51 -132 -37 -230 -88 -297 -155
-69 -69 -85 -118 -103 -329 -4 -41 -8 -91 -10 -110 -2 -19 -6 -73 -10 -120 -4
-47 -8 -101 -10 -120 -2 -19 -6 -69 -9 -110 -4 -41 -9 -95 -11 -120 -3 -25 -7
-79 -11 -120 -3 -41 -8 -88 -9 -105 -2 -16 -6 -68 -10 -115 -4 -47 -8 -101
-10 -120 -2 -19 -7 -80 -10 -135 -4 -55 -8 -116 -10 -135 -27 -390 -27 -1367
0 -1510 2 -8 6 -51 9 -95 10 -118 44 -327 72 -435 47 -185 146 -336 304 -464
127 -104 195 -130 360 -143 316 -24 551 19 710 129 142 99 248 306 294 576 18
101 26 162 41 312 4 36 8 81 10 100 3 30 9 90 30 315 2 22 6 72 10 110 3 39 8
95 10 125 5 53 7 77 20 225 3 39 7 97 10 130 2 33 6 87 9 120 3 33 8 105 11
160 4 55 8 116 10 135 2 19 6 87 10 150 3 63 8 140 10 170 28 403 45 1079 31
1216 -13 136 -126 311 -255 398 -60 41 -172 87 -246 100 -17 3 -41 8 -55 11
-118 22 -502 28 -635 10z m395 -439 c14 -4 36 -8 48 -11 77 -14 186 -64 229
-105 38 -35 62 -153 88 -435 22 -234 22 -655 0 -786 -2 -13 -6 -42 -10 -64 -8
-53 -28 -82 -62 -87 -47 -7 -914 -1 -967 6 -84 12 -88 17 -89 111 0 30 10 153
17 210 2 17 7 62 10 100 4 39 11 104 16 145 5 41 12 100 15 130 3 30 8 66 10
80 4 24 9 63 20 175 3 28 7 61 10 75 3 14 7 48 10 75 9 87 26 168 40 195 64
121 263 201 485 195 58 -2 116 -6 130 -9z m215 -1920 c80 -10 110 -23 124 -52
11 -24 9 -184 -4 -359 -3 -44 -7 -111 -10 -150 -5 -83 -15 -208 -19 -250 -15
-141 -19 -172 -22 -190 -2 -10 -6 -37 -9 -60 -22 -160 -72 -340 -121 -439 -58
-116 -159 -191 -284 -211 -99 -16 -334 96 -437 208 -84 91 -161 238 -185 350
-13 62 -19 1061 -7 1094 15 41 17 41 309 59 58 3 106 7 107 8 7 6 506 -1 558
-8z"/>
<path d="M4217 3674 c-1 -1 -60 -4 -132 -8 -176 -9 -318 -20 -400 -32 -16 -2
-50 -6 -75 -9 -154 -15 -251 -31 -309 -48 -130 -37 -109 -176 39 -256 58 -32
72 -35 140 -35 67 0 167 7 255 18 27 4 111 12 220 21 22 2 90 7 150 10 61 3
148 8 195 11 104 7 654 6 730 -1 91 -8 174 -17 195 -21 11 -2 48 -9 83 -14 97
-16 287 -77 374 -121 104 -51 157 -89 206 -144 77 -88 93 -160 63 -287 l-16
-68 -100 57 c-152 85 -244 121 -360 138 -22 3 -65 10 -95 15 -30 5 -80 11
-110 14 -30 4 -71 8 -90 10 -45 6 -124 13 -225 21 -44 4 -93 8 -110 10 -224
26 -1161 27 -1385 1 -19 -3 -62 -7 -95 -11 -127 -13 -196 -38 -244 -85 -66
-66 -19 -142 94 -154 84 -10 182 -15 360 -21 366 -11 630 -21 1095 -40 63 -3
178 -7 255 -10 77 -3 147 -7 155 -10 8 -2 35 -7 60 -10 25 -3 56 -8 70 -10 14
-3 41 -7 60 -10 92 -14 130 -28 171 -63 26 -22 58 -73 69 -111 8 -29 7 -30
-43 -49 -48 -19 -163 -47 -232 -56 -16 -2 -95 -14 -175 -25 -80 -12 -170 -24
-200 -26 -30 -3 -73 -7 -95 -10 -39 -4 -226 -14 -395 -20 -133 -5 -729 -5
-790 0 -30 3 -183 7 -340 10 -268 5 -370 -1 -392 -23 -17 -17 -18 -125 -1
-159 24 -51 109 -94 218 -110 17 -2 41 -6 55 -8 138 -23 753 -23 1030 0 25 2
99 6 164 10 66 3 133 8 150 10 17 2 69 7 116 10 47 3 108 8 135 10 122 11 282
27 305 30 14 2 57 6 95 10 39 4 84 8 100 10 155 19 210 25 275 30 41 4 85 8
97 10 19 3 25 -4 39 -48 19 -64 47 -179 75 -312 11 -55 23 -109 25 -120 9 -44
55 -292 59 -320 3 -16 7 -41 10 -55 3 -14 8 -45 11 -70 32 -254 147 -484 325
-657 93 -90 135 -47 155 157 2 19 -5 67 -16 106 -10 39 -21 81 -24 95 -3 13
-14 65 -25 114 -10 50 -34 169 -51 265 -17 96 -49 258 -71 360 -22 101 -42
207 -45 235 -3 27 -9 77 -14 110 -4 33 -7 110 -6 170 1 126 11 152 93 245 128
144 212 307 254 490 30 129 14 299 -36 384 -76 129 -255 228 -535 295 -80 19
-277 54 -365 65 -61 8 -127 17 -155 21 -14 2 -54 6 -90 9 -36 4 -85 8 -110 11
-63 6 -152 14 -240 20 -41 3 -102 7 -135 10 -185 13 -490 25 -498 19z"/>
<path d="M3034 1492 c-76 -49 -103 -237 -48 -343 28 -56 126 -63 454 -34 64 6
314 20 535 30 307 14 611 22 955 26 223 2 302 13 365 50 60 36 99 90 91 125
-20 78 -199 99 -936 109 -671 9 -1158 25 -1233 41 -12 3 -51 7 -87 10 -53 4
-71 2 -96 -14z"/>
</g>
</svg>
